<?xml version="1.0" standalone="no"?>
<!DOCTYPE svg PUBLIC "-//W3C//DTD SVG 20010904//EN"
 "http://www.w3.org/TR/2001/REC-SVG-20010904/DTD/svg10.dtd">
<svg version="1.0" xmlns="http://www.w3.org/2000/svg"
 width="16.000000pt" height="16.000000pt" viewBox="0 0 16.000000 16.000000"
 preserveAspectRatio="xMidYMid meet">
<metadata>
Created by potrace 1.11, written by Peter Selinger 2001-2013
</metadata>
<g transform="translate(0.000000,16.000000) scale(0.007477,-0.007477)"
fill="#000000" stroke="none">
<path d="M1495 1710 c-202 -49 -317 -174 -322 -349 -3 -137 59 -236 188 -301
50 -26 316 -101 354 -100 18 0 125 -56 147 -77 44 -42 53 -120 20 -176 -45
-76 -193 -119 -324 -94 -86 17 -171 83 -188 147 l-10 37 -111 0 -111 0 7 -46
c17 -120 112 -236 235 -286 108 -43 288 -56 409 -30 220 49 344 185 342 376
-1 127 -57 222 -167 283 -49 28 -186 70 -324 101 -78 17 -172 55 -193 77 -47
50 -56 92 -32 154 27 70 110 115 215 116 133 2 225 -49 251 -138 8 -24 16 -45
19 -45 3 -1 51 -2 108 -3 l104 -1 -5 40 c-10 84 -49 158 -117 219 -42 38 -132
84 -180 92 -14 3 -32 7 -40 11 -35 14 -207 10 -275 -7z"/>
<path d="M2 1076 l1 -637 301 1 c329 1 398 9 489 54 203 99 249 384 86 530
-48 43 -160 93 -180 80 -5 -3 -9 -1 -9 3 0 5 22 16 48 25 148 53 220 244 149
391 -36 72 -101 129 -180 158 -58 21 -81 23 -383 27 l-322 4 0 -636z m601 430
c104 -52 119 -202 28 -279 -47 -39 -100 -50 -258 -52 l-143 -2 0 179 0 179
168 -3 c139 -2 173 -6 205 -22z m21 -516 c89 -34 134 -109 121 -203 -12 -81
-63 -135 -149 -158 -39 -11 -327 -19 -353 -11 -10 3 -13 51 -13 196 0 106 2
195 4 197 3 2 79 3 170 2 138 -2 173 -6 220 -23z"/>
</g>
</svg>
