<?xml version="1.0" standalone="no"?>
<!DOCTYPE svg PUBLIC "-//W3C//DTD SVG 20010904//EN"
 "http://www.w3.org/TR/2001/REC-SVG-20010904/DTD/svg10.dtd">
<svg version="1.0" xmlns="http://www.w3.org/2000/svg"
 width="138.000000pt" height="138.000000pt" viewBox="0 0 138.000000 138.000000"
 preserveAspectRatio="xMidYMid meet">
<metadata>
Created by potrace 1.11, written by Peter Selinger 2001-2013
</metadata>
<g transform="translate(0.000000,138.000000) scale(0.100000,-0.100000)"
fill="#000000" stroke="none">
<path d="M226 708 c1 -370 2 -679 3 -685 1 -17 498 -18 587 -2 161 28 244 86
302 208 23 49 26 69 27 161 0 96 -2 109 -27 155 -15 28 -38 61 -50 75 -36 39
-117 98 -153 111 l-33 12 54 42 c110 86 154 173 153 303 -1 166 -86 260 -255
281 -38 5 -190 10 -339 10 l-270 2 1 -673z m557 506 c85 -22 127 -78 127 -167
0 -65 -37 -146 -84 -182 -67 -51 -123 -68 -207 -62 -157 10 -203 57 -204 207
0 105 29 174 85 203 42 21 204 22 283 1z m-170 -578 c20 -3 54 -9 75 -12 184
-27 272 -108 272 -248 0 -67 -9 -93 -50 -139 -42 -48 -125 -79 -210 -78 -36 0
-74 2 -85 5 -48 10 -143 40 -172 54 l-33 16 0 201 c0 111 2 204 5 207 6 6 149
2 198 -6z"/>
</g>
</svg>
